<svg xmlns="http://www.w3.org/2000/svg" viewBox="0 0 640 260" font-family="Arial Narrow, Arial, sans-serif">
  <rect width="640" height="260" fill="#f3f6f5"/>
  <rect x="40" y="20" width="580" height="200" fill="#e8eeec" stroke="#cdd8d4"/>
  <path d="M60,200 L170,199 L200,196 L222,90 L240,60 L262,82 L300,96 L340,98 L380,94 L418,80 L440,58 L458,88 L480,196 L510,199 L600,200 Z" fill="#1d6e8a" fill-opacity="0.18"/>
  <polyline fill="none" stroke="#16201d" stroke-width="2" points="60,200 170,199 200,196 222,90 240,60 262,82 300,96 340,98 380,94 418,80 440,58 458,88 480,196 510,199 600,200"/>
  <g stroke="#b4471d" stroke-width="2.4"><line x1="214" y1="130" x2="466" y2="130"/><line x1="214" y1="122" x2="214" y2="138"/><line x1="466" y1="122" x2="466" y2="138"/></g>
  <text x="340" y="152" text-anchor="middle" fill="#b4471d" font-size="15" font-weight="700">width W50 → rotation speed V</text>
  <text x="340" y="184" text-anchor="middle" fill="#1d6e8a" font-size="15" font-weight="700">shaded area (flux) → hydrogen mass</text>
  <text x="60" y="244" fill="#56645f" font-size="13">← approaching side</text>
  <text x="600" y="244" text-anchor="end" fill="#56645f" font-size="13">receding side →</text>
</svg>
